<?xml version="1.0" standalone="no"?>
<!DOCTYPE svg PUBLIC "-//W3C//DTD SVG 20010904//EN"
 "http://www.w3.org/TR/2001/REC-SVG-20010904/DTD/svg10.dtd">
<svg version="1.0" xmlns="http://www.w3.org/2000/svg"
 width="652.000000pt" height="652.000000pt" viewBox="0 0 652.000000 652.000000"
 preserveAspectRatio="xMidYMid meet">
<metadata>
Created by potrace 1.14, written by Peter Selinger 2001-2017
</metadata>
<g transform="translate(0.000000,652.000000) scale(0.100000,-0.100000)"
fill="#000000" stroke="none">
<path d="M0 3517 c0 -2996 0 -3003 20 -3003 11 0 20 6 20 13 0 7 9 13 20 13
11 0 20 4 20 9 0 5 14 14 31 22 28 11 33 10 45 -6 8 -10 14 -14 14 -8 0 18 60
36 70 21 8 -10 51 2 44 13 -3 5 1 9 10 9 8 0 16 6 19 13 3 10 9 10 26 0 27
-17 62 -16 86 1 24 16 76 28 130 29 23 0 45 7 51 16 10 13 12 12 18 -7 10 -30
28 -17 20 14 -5 19 -2 24 12 24 16 0 17 -2 4 -10 -12 -7 -11 -9 6 -8 20 2 21
4 7 38 -7 19 -22 53 -33 75 -10 22 -30 69 -44 105 -13 36 -58 152 -100 258
-189 481 -335 965 -385 1272 -68 420 -90 1057 -47 1330 67 421 253 788 680
1341 293 377 490 561 811 756 261 159 594 285 940 357 279 59 300 60 760 62
348 1 445 5 510 18 139 27 463 42 622 28 260 -24 488 -74 706 -156 110 -41
294 -130 252 -121 l-30 6 34 -25 c19 -14 40 -26 46 -26 12 0 15 -13 17 -62 0
-16 7 -28 14 -28 7 0 15 -9 19 -19 3 -11 14 -23 24 -26 10 -3 24 -17 31 -30 7
-14 20 -25 27 -25 8 0 11 -5 8 -10 -3 -6 5 -14 19 -20 23 -8 30 -19 28 -41 0
-3 15 -14 34 -24 28 -15 35 -24 31 -42 -3 -15 1 -23 9 -23 10 0 14 -14 15 -42
1 -39 2 -40 8 -13 l6 30 25 -27 c13 -16 30 -28 37 -28 8 0 11 -4 8 -10 -3 -5
-18 -10 -32 -10 -21 0 -24 -3 -19 -22 3 -13 6 -26 6 -30 0 -5 7 -8 16 -8 13 0
14 3 5 13 -17 21 -2 28 18 9 12 -11 15 -21 9 -29 -16 -20 8 -52 33 -46 19 5
21 3 17 -15 -4 -12 -2 -25 3 -28 5 -3 9 -18 9 -35 0 -17 5 -28 12 -26 6 1 14
-7 16 -18 6 -28 33 -56 51 -53 9 1 22 -1 30 -6 8 -5 16 -3 22 5 7 11 9 12 9 1
0 -8 -9 -16 -20 -19 -11 -3 -20 -9 -20 -14 0 -18 20 -59 30 -59 16 0 12 27 -6
34 -8 3 -13 10 -10 15 4 5 16 4 31 -2 20 -10 24 -18 22 -52 -1 -22 -9 -45 -17
-52 -13 -10 -12 -13 5 -19 27 -10 35 -23 35 -59 0 -16 7 -39 15 -49 21 -28 19
-35 -12 -47 -16 -7 -23 -13 -15 -16 6 -3 12 -13 12 -23 0 -16 -34 -31 -78 -34
-7 -1 -16 -6 -20 -13 -4 -6 -20 -16 -35 -22 -15 -6 -27 -14 -26 -18 3 -20 -2
-27 -11 -13 -8 13 -10 12 -10 -3 0 -10 -13 -30 -30 -44 -29 -24 -41 -63 -20
-63 6 0 10 -7 10 -15 0 -8 -7 -15 -15 -15 -8 0 -15 8 -15 18 -1 15 -2 15 -11
-2 -9 -14 -8 -20 2 -27 7 -4 11 -11 8 -14 -9 -9 -40 6 -33 16 3 5 1 9 -5 9
-16 0 -25 -42 -11 -50 9 -6 8 -9 -6 -12 -13 -2 -19 -13 -20 -36 -1 -17 3 -32
8 -32 5 0 3 -7 -6 -15 -19 -20 -26 -19 -27 3 0 9 -4 5 -9 -11 -5 -15 -20 -37
-34 -48 -14 -11 -26 -25 -26 -31 0 -6 3 -9 6 -5 6 6 44 -23 44 -35 0 -4 -14
-5 -31 -1 -25 5 -31 3 -27 -8 3 -8 13 -13 23 -11 27 5 8 -16 -36 -38 -44 -23
-51 -35 -15 -28 15 3 27 0 30 -8 6 -15 1 -19 -36 -28 -32 -7 -38 -26 -8 -26
23 0 27 -28 5 -36 -8 -4 -15 -18 -15 -34 0 -21 -6 -29 -25 -34 -14 -4 -25 -13
-25 -21 0 -19 24 -19 44 0 19 19 26 19 26 0 0 -8 -5 -15 -12 -15 -17 0 -78
-72 -78 -92 0 -10 5 -18 10 -18 6 0 10 -4 10 -10 0 -14 -27 -12 -34 3 -3 6 -4
3 -3 -8 2 -11 9 -19 16 -17 7 1 11 -3 9 -10 -3 -7 -13 -13 -24 -13 -13 0 -18
6 -16 20 3 15 1 17 -8 8 -9 -8 -10 -19 -2 -41 8 -25 7 -33 -6 -45 -9 -8 -23
-12 -29 -10 -7 3 -13 -1 -13 -7 0 -7 -7 -10 -15 -6 -9 3 -19 -3 -25 -15 -6
-11 -15 -17 -20 -14 -5 3 -11 1 -14 -3 -3 -5 -20 -8 -38 -6 -42 3 -68 -4 -68
-19 0 -6 -14 -26 -32 -44 -30 -31 -31 -33 -10 -34 12 -1 28 -2 35 -3 23 -2 41
-40 44 -91 4 -81 8 -103 16 -111 4 -4 7 -20 7 -35 0 -15 7 -34 15 -42 10 -10
12 -26 8 -51 -6 -38 -19 -47 -26 -18 -3 12 -5 10 -6 -7 0 -13 6 -29 16 -36 15
-11 14 -14 -5 -33 -27 -27 -33 -58 -10 -54 15 2 16 0 1 -29 -11 -21 -14 -45
-9 -75 5 -41 4 -44 -17 -44 -12 0 -17 -4 -12 -8 14 -10 12 -75 -2 -79 -7 -3
-9 -11 -6 -19 3 -8 -1 -14 -11 -14 -13 0 -15 -10 -13 -47 1 -31 -2 -48 -10
-48 -23 0 -27 -16 -5 -22 20 -5 21 -7 7 -17 -27 -19 -40 -117 -14 -100 5 3 9
0 9 -5 0 -6 -4 -11 -10 -11 -5 0 -10 -7 -10 -15 0 -8 -7 -15 -15 -15 -11 0
-12 -5 -5 -26 12 -32 13 -57 1 -50 -5 3 -11 -3 -14 -14 -3 -12 1 -24 11 -29
14 -8 14 -10 -1 -26 -13 -12 -15 -26 -11 -54 5 -31 3 -39 -12 -45 -18 -7 -18
-8 0 -21 18 -13 18 -15 2 -21 -13 -5 -16 -13 -12 -30 4 -14 0 -34 -9 -47 -13
-20 -13 -26 -1 -42 14 -20 10 -55 -6 -55 -7 0 -8 -16 -4 -40 5 -31 3 -42 -9
-46 -8 -4 -15 -10 -15 -16 0 -5 4 -6 10 -3 5 3 3 -12 -5 -35 -8 -22 -12 -40
-10 -40 3 0 -4 -9 -15 -20 -11 -11 -24 -20 -30 -20 -5 0 -10 -5 -10 -10 0 -6
6 -10 13 -8 6 2 12 -2 12 -7 0 -5 -7 -8 -15 -7 -8 2 -5 -4 8 -13 22 -16 22
-18 7 -35 -15 -17 -15 -19 2 -29 17 -10 17 -10 1 -11 -12 0 -18 -8 -18 -23 0
-13 -6 -29 -12 -36 -10 -11 -10 -14 0 -18 17 -6 15 -23 -8 -71 -21 -43 -26
-77 -11 -67 6 3 15 -3 21 -14 9 -17 8 -19 -5 -15 -18 7 -20 -7 -4 -23 7 -7 8
-17 3 -25 -9 -15 -12 -27 -17 -80 -2 -20 -11 -44 -20 -52 -19 -20 -33 -94 -19
-108 15 -15 25 8 12 31 -8 16 -6 23 12 36 16 10 24 12 27 4 2 -6 -2 -14 -8
-18 -7 -5 -8 -17 -1 -41 8 -26 6 -37 -5 -50 -8 -9 -15 -26 -15 -38 0 -12 -5
-22 -12 -22 -6 0 -8 -3 -5 -7 4 -3 3 -11 -2 -17 -6 -7 -12 -24 -15 -40 -3 -15
-10 -34 -16 -41 -7 -8 -9 -18 -6 -24 3 -5 3 -17 -1 -27 -5 -15 -8 -14 -15 7
-9 23 -10 23 -23 6 -19 -26 -5 -71 23 -75 20 -3 22 -7 17 -60 -13 -134 -14
-137 -44 -155 -21 -12 -28 -23 -24 -37 7 -26 23 -26 23 0 0 11 7 20 15 20 8 0
15 -7 15 -15 0 -8 6 -15 13 -15 8 0 7 -4 -3 -10 -13 -9 -13 -12 3 -24 18 -14
23 -52 7 -58 -5 -1 -11 -20 -13 -40 -2 -20 -9 -43 -15 -50 -17 -21 -11 -78 12
-117 16 -28 17 -34 4 -29 -13 6 -14 1 -7 -30 11 -46 10 -64 -1 -37 -7 18 -9
18 -19 -9 -9 -23 -9 -32 4 -46 8 -9 12 -20 9 -23 -4 -4 -8 -25 -9 -48 -1 -23
-8 -45 -16 -49 -11 -7 -11 -13 0 -34 8 -13 13 -36 13 -50 0 -15 4 -29 9 -32 5
-3 9 -19 9 -35 0 -21 -6 -32 -23 -39 -13 -5 310 -9 826 -9 l847 -1 0 3260 0
3260 -3260 0 -3260 0 0 -3003z m5845 1883 c-4 -6 -1 -17 5 -25 6 -8 8 -20 4
-27 -5 -8 -10 -3 -15 17 -8 26 -4 45 7 45 3 0 2 -5 -1 -10z m55 -70 c0 -5 -4
-10 -10 -10 -5 0 -10 5 -10 10 0 6 5 10 10 10 6 0 10 -4 10 -10z m27 -42 c-3
-7 -5 -2 -5 12 0 14 2 19 5 13 2 -7 2 -19 0 -25z m-19 3 c3 -8 -1 -12 -9 -9
-7 2 -15 10 -17 17 -3 8 1 12 9 9 7 -2 15 -10 17 -17z m142 -241 c0 -5 -4 -10
-10 -10 -5 0 -10 5 -10 10 0 6 5 10 10 10 6 0 10 -4 10 -10z m-290 -468 c0 -5
-7 -9 -15 -9 -8 0 -15 4 -15 9 0 4 7 8 15 8 8 0 15 -4 15 -8z m-90 -136 c0 -3
-4 -8 -10 -11 -5 -3 -10 -1 -10 4 0 6 5 11 10 11 6 0 10 -2 10 -4z m-430 -656
c0 -5 -2 -10 -4 -10 -3 0 -8 5 -11 10 -3 6 -1 10 4 10 6 0 11 -4 11 -10z"/>
<path d="M5345 5970 c-3 -5 -1 -10 4 -10 6 0 11 5 11 10 0 6 -2 10 -4 10 -3 0
-8 -4 -11 -10z"/>
<path d="M5386 5953 c-9 -9 -7 -33 3 -33 12 0 22 28 12 34 -5 3 -11 3 -15 -1z"/>
<path d="M2920 5631 c-6 -12 -18 -21 -26 -21 -9 0 -12 5 -8 13 4 6 -4 2 -18
-10 -13 -13 -30 -23 -37 -23 -7 0 -10 -7 -6 -19 5 -16 1 -18 -22 -13 -16 2
-25 1 -21 -2 8 -10 -23 -47 -33 -40 -5 2 -11 -11 -15 -30 -8 -44 -31 -66 -45
-45 -8 10 -9 8 -4 -8 4 -13 2 -23 -4 -23 -6 0 -8 -7 -5 -15 4 -9 0 -15 -10
-15 -12 0 -16 -9 -16 -34 0 -22 -9 -45 -25 -64 -19 -22 -22 -32 -12 -41 9 -10
8 -11 -5 -6 -14 5 -18 2 -18 -13 0 -12 -4 -24 -10 -27 -15 -9 -12 -25 5 -25
17 0 19 -9 5 -30 -8 -13 -10 -12 -10 3 0 32 -17 17 -23 -20 -11 -69 -16 -85
-42 -118 -14 -19 -25 -41 -25 -50 0 -9 -4 -14 -9 -10 -5 3 -16 -4 -24 -16 -11
-15 -17 -17 -23 -8 -13 21 -21 -20 -13 -65 4 -22 5 -46 2 -53 -3 -7 0 -20 6
-27 8 -10 9 -16 1 -21 -15 -9 -12 -25 5 -25 14 0 14 -3 0 -24 -16 -24 -16 -24
7 -19 l23 6 -23 -25 c-14 -16 -19 -28 -13 -32 15 -9 1 -38 -15 -32 -9 3 -14
-2 -14 -14 0 -23 -16 -35 -23 -18 -7 19 -19 2 -19 -26 0 -17 -7 -26 -21 -28
-13 -2 -24 -15 -32 -37 -6 -19 -16 -36 -23 -39 -6 -2 -8 -10 -5 -19 4 -10 2
-14 -4 -10 -6 4 -8 -2 -6 -16 3 -14 -2 -29 -11 -36 -9 -8 -16 -20 -16 -27 0
-8 -5 -14 -11 -14 -5 0 -7 -5 -4 -10 3 -6 -1 -17 -9 -26 -9 -9 -13 -20 -10
-26 4 -6 2 -13 -4 -17 -7 -4 -13 -16 -15 -27 -1 -11 -13 -34 -25 -51 -22 -31
-21 -59 2 -75 8 -6 8 -10 0 -15 -13 -10 -26 -43 -16 -43 4 0 7 -27 7 -60 1
-32 -3 -54 -7 -47 -6 9 -8 8 -8 -3 0 -13 -1 -13 -10 0 -5 8 -12 11 -15 8 -4
-4 0 -16 8 -28 11 -15 16 -18 20 -8 2 7 8 -4 12 -25 6 -29 11 -37 24 -33 10 4
8 -1 -6 -13 -12 -10 -20 -27 -19 -37 2 -10 -1 -25 -7 -31 -5 -7 -6 -13 -1 -13
5 0 3 -4 -4 -9 -11 -7 -11 -14 1 -42 16 -40 12 -60 -11 -52 -15 4 -15 3 -2 -6
13 -10 13 -12 0 -22 -13 -9 -13 -10 2 -6 22 8 32 -21 13 -39 -18 -18 -20 -34
-4 -34 6 0 9 -9 6 -20 -3 -11 -1 -20 3 -20 4 0 6 -9 3 -20 -3 -11 3 -32 12
-47 17 -25 17 -27 0 -39 -16 -12 -15 -14 9 -20 31 -7 32 -11 9 -36 -16 -18
-16 -19 5 -25 16 -4 20 -9 13 -17 -10 -12 -9 -54 2 -72 3 -6 4 -29 2 -52 -2
-23 0 -44 4 -47 5 -3 7 -15 4 -27 -4 -14 0 -26 13 -35 16 -12 17 -15 4 -23
-18 -11 -20 -30 -7 -48 7 -8 6 -17 -1 -24 -6 -6 -8 -17 -5 -24 3 -8 -1 -14
-11 -14 -12 0 -16 -10 -16 -39 0 -22 -3 -46 -6 -54 -3 -8 2 -21 10 -29 10 -11
11 -19 4 -26 -5 -5 -11 -36 -13 -67 -1 -33 -8 -61 -15 -65 -7 -4 -10 -13 -6
-18 4 -6 1 -21 -6 -32 -11 -17 -11 -22 1 -29 12 -8 12 -13 -2 -34 -9 -14 -13
-28 -9 -32 4 -4 7 -17 7 -28 0 -12 6 -21 13 -19 6 1 12 -3 12 -8 0 -6 -6 -10
-12 -9 -18 3 -48 -11 -48 -22 0 -11 27 -12 33 -1 2 4 2 1 0 -7 -2 -8 2 -18 9
-23 10 -8 10 -11 1 -15 -7 -2 -13 -14 -14 -26 0 -21 -1 -21 -9 -2 -9 20 -6
-19 6 -87 3 -17 1 -28 -5 -28 -6 0 -11 9 -11 20 0 11 -4 20 -10 20 -13 0 -13
-16 0 -41 8 -14 7 -19 -2 -20 -7 0 -3 -4 10 -9 23 -10 29 -25 12 -35 -5 -3 -7
-12 -3 -20 3 -9 -1 -15 -11 -15 -9 0 -13 6 -10 14 7 17 -12 31 -21 16 -4 -6
-1 -17 5 -25 9 -11 9 -19 2 -28 -15 -18 -34 -69 -23 -62 17 10 21 -12 5 -26
-8 -7 -14 -22 -13 -33 2 -34 0 -46 -10 -46 -5 0 -12 8 -14 18 -3 9 -5 -2 -6
-25 0 -24 4 -43 9 -43 14 0 12 -43 -2 -59 -10 -11 -10 -14 0 -18 14 -5 16 -51
3 -72 -6 -9 -5 -21 2 -32 8 -13 8 -24 -1 -43 -11 -25 -7 -31 21 -27 4 0 7 -4
7 -9 0 -6 -4 -10 -10 -10 -14 0 -12 -46 3 -62 13 -15 15 -37 4 -55 -4 -7 0
-16 10 -22 17 -10 17 -10 1 -11 -20 0 -25 -44 -8 -70 6 -10 4 -22 -6 -37 -8
-13 -12 -23 -9 -23 3 0 -6 -11 -20 -26 -14 -14 -29 -23 -33 -20 -5 3 -21 -6
-38 -19 -16 -13 -23 -24 -16 -25 13 0 11 -91 -3 -137 -5 -15 -3 -23 4 -23 6 0
11 5 11 10 0 6 5 10 10 10 6 0 10 -10 10 -22 0 -17 3 -19 9 -10 10 17 25 -30
22 -65 -2 -15 3 -23 13 -23 13 0 13 -4 -1 -37 -8 -21 -20 -42 -27 -46 -6 -5 7
-6 29 -2 37 6 39 5 20 -9 -11 -8 -27 -16 -36 -16 -13 0 -15 -8 -12 -40 4 -32
2 -40 -11 -40 -9 0 -16 -4 -16 -10 0 -5 5 -10 10 -10 6 0 10 -6 10 -14 0 -8 4
-16 9 -18 5 -2 3 -12 -6 -23 -11 -14 -17 -16 -20 -7 -6 14 -33 16 -33 2 0 -5
5 -10 11 -10 24 0 38 -28 33 -66 -3 -30 -2 -34 5 -19 9 18 10 18 10 2 1 -11
-8 -21 -19 -24 -23 -6 -26 -18 -7 -27 10 -5 10 -7 0 -12 -19 -8 -16 -24 5 -25
11 -1 8 -4 -8 -9 -23 -7 -23 -8 13 -15 28 -5 35 -11 28 -18 -6 -6 -11 -19 -11
-29 0 -10 -5 -18 -11 -18 -14 0 -2 -77 17 -107 18 -29 18 -37 -1 -29 -9 3 -15
0 -15 -9 0 -15 7 -18 45 -17 17 1 17 0 3 -4 -28 -8 -22 -41 7 -46 22 -5 25 -3
19 16 -5 16 -3 18 6 10 6 -6 10 -26 8 -44 -2 -25 -11 -38 -33 -50 -31 -17 -41
-54 -15 -56 35 -3 58 -17 63 -40 2 -13 0 -24 -4 -24 -5 0 -9 -6 -9 -14 0 -8
-6 -17 -12 -19 -7 -3 333 -6 756 -6 623 -1 766 1 758 12 -6 7 -13 35 -16 62
-5 53 -53 302 -60 313 -6 10 -23 121 -81 547 -20 143 -49 341 -65 440 -47 289
-51 329 -57 540 -6 270 5 369 74 632 19 73 43 193 54 265 24 158 37 488 21
521 -13 28 -37 106 -53 177 -17 75 -50 133 -64 110 -3 -5 -2 -10 4 -10 6 0 7
-15 4 -35 -4 -24 -2 -35 6 -35 7 0 9 -4 6 -10 -10 -17 -25 -11 -25 10 0 11 -4
20 -9 20 -6 0 -6 -12 0 -32 12 -43 11 -48 -3 -48 -9 0 -13 -19 -12 -65 1 -36
-2 -65 -6 -65 -4 0 -5 -11 -3 -24 3 -13 -1 -34 -8 -47 -12 -23 -12 -23 -20 -4
-6 17 -8 15 -8 -9 -1 -27 -2 -28 -14 -12 -14 20 -28 10 -40 -29 -7 -20 -7 -20
8 0 14 17 17 18 25 5 15 -23 12 -30 -10 -30 -19 0 -27 -22 -21 -60 2 -8 4 -48
6 -89 2 -67 1 -72 -11 -50 -7 14 -20 54 -28 90 -9 35 -25 98 -36 139 -11 41
-23 110 -26 153 -4 43 -11 80 -15 83 -5 3 -10 -3 -10 -13 -5 -62 -4 -75 3 -79
4 -3 3 -14 -2 -24 -10 -19 -9 -44 5 -129 5 -25 4 -46 -2 -50 -5 -3 -16 -24
-24 -45 -8 -22 -19 -41 -26 -43 -11 -4 -30 66 -26 97 2 8 5 47 8 85 3 39 6 84
7 100 2 22 -1 30 -12 29 -19 -1 -21 36 -3 58 16 18 27 178 13 178 -5 0 -10 4
-10 10 0 5 6 7 14 4 11 -4 18 7 27 38 7 24 18 50 25 58 7 8 15 44 19 80 3 36
8 85 10 110 3 25 7 106 10 180 5 107 11 153 32 220 30 96 34 171 11 215 -9 18
-19 72 -23 133 -7 98 -6 104 14 118 11 8 21 21 21 28 0 8 7 19 15 26 20 16 21
115 2 107 -8 -3 -20 10 -30 34 -9 21 -21 39 -27 39 -21 0 -10 57 16 81 l26 24
-7 115 c-5 63 -9 142 -10 175 -2 76 -13 125 -28 125 -7 0 -24 10 -37 23 -69
60 -69 60 -85 47 -18 -15 -45 -6 -45 15 0 8 -4 15 -10 15 -5 0 -10 -5 -10 -11
0 -8 -4 -8 -14 0 -12 10 -17 8 -26 -8z m-340 -531 c0 -5 -5 -10 -11 -10 -5 0
-7 5 -4 10 3 6 8 10 11 10 2 0 4 -4 4 -10z m530 -307 c0 -5 -5 -15 -10 -23 -8
-12 -10 -11 -10 8 0 12 5 22 10 22 6 0 10 -3 10 -7z m-936 -658 c-4 -8 -8 -15
-10 -15 -2 0 -4 7 -4 15 0 8 4 15 10 15 5 0 7 -7 4 -15z m66 -315 c0 -5 -5
-10 -11 -10 -5 0 -7 5 -4 10 3 6 8 10 11 10 2 0 4 -4 4 -10z m661 -408 c-6 -2
-9 -8 -5 -13 3 -5 -1 -16 -10 -24 -13 -13 -15 -12 -14 14 1 17 7 32 15 35 7 3
14 13 14 23 1 11 4 8 6 -7 3 -13 0 -26 -6 -28z m91 -4 c-7 -7 -12 -8 -12 -2 0
6 3 14 7 17 3 4 9 5 12 2 2 -3 -1 -11 -7 -17z m-4 -68 c-3 -28 -1 -53 3 -56
15 -9 10 -37 -10 -58 -22 -23 -33 -63 -33 -117 0 -33 -3 -35 -25 -31 -24 5
-24 6 -22 99 2 67 7 97 16 100 7 3 13 20 13 39 0 21 8 40 22 54 33 31 41 25
36 -30z m36 -344 c23 5 28 2 41 -29 10 -24 13 -50 8 -79 -7 -44 -8 -155 -4
-288 5 -156 -7 -395 -23 -465 -10 -42 -14 -84 -10 -105 3 -19 7 -141 9 -270 2
-143 7 -246 14 -263 36 -92 -22 -163 -89 -109 -23 18 -23 19 -11 163 6 79 13
178 16 219 3 41 8 102 11 135 11 99 7 271 -7 308 -10 30 -10 48 4 111 22 101
21 140 -4 191 l-22 43 21 69 c12 37 24 98 28 134 6 59 4 71 -19 111 -23 41
-31 79 -28 132 1 18 2 18 20 2 13 -12 27 -15 45 -10z m216 -94 c0 -10 5 -23
12 -30 9 -9 8 -12 -6 -12 -9 0 -15 4 -11 9 3 5 1 12 -5 16 -13 8 -13 35 0 35
6 0 10 -8 10 -18z m-1020 -36 c0 -3 -4 -8 -10 -11 -5 -3 -10 -1 -10 4 0 6 5
11 10 11 6 0 10 -2 10 -4z m-63 -578 c-3 -8 -6 -5 -6 6 -1 11 2 17 5 13 3 -3
4 -12 1 -19z m-70 -880 c-3 -8 -6 -5 -6 6 -1 11 2 17 5 13 3 -3 4 -12 1 -19z
m-17 -128 c0 -5 -5 -10 -11 -10 -5 0 -7 5 -4 10 3 6 8 10 11 10 2 0 4 -4 4
-10z m-15 -880 c3 -5 1 -10 -4 -10 -6 0 -11 5 -11 10 0 6 2 10 4 10 3 0 8 -4
11 -10z"/>
<path d="M5840 5258 c0 -9 5 -20 10 -23 13 -8 13 5 0 25 -8 13 -10 13 -10 -2z"/>
<path d="M5930 5000 c-12 -7 -12 -12 -3 -21 15 -15 26 -7 21 15 -2 11 -7 13
-18 6z"/>
<path d="M5973 4983 c-7 -15 -10 -29 -7 -32 7 -8 34 29 34 46 0 22 -14 15 -27
-14z"/>
<path d="M5914 4909 c-7 -12 12 -29 34 -29 15 0 16 12 0 28 -15 15 -25 15 -34
1z"/>
<path d="M5385 3890 c-3 -5 1 -10 9 -10 9 0 16 5 16 10 0 6 -4 10 -9 10 -6 0
-13 -4 -16 -10z"/>
<path d="M5140 3790 c0 -5 5 -10 10 -10 6 0 10 5 10 10 0 6 -4 10 -10 10 -5 0
-10 -4 -10 -10z"/>
<path d="M5186 3671 c-3 -5 1 -14 8 -20 12 -10 13 -8 9 8 -6 23 -9 25 -17 12z"/>
<path d="M1965 820 c-3 -5 3 -10 14 -10 12 0 21 5 21 10 0 6 -6 10 -14 10 -8
0 -18 -4 -21 -10z"/>
<path d="M188 303 c7 -3 16 -2 19 1 4 3 -2 6 -13 5 -11 0 -14 -3 -6 -6z"/>
<path d="M4820 50 c0 -11 6 -20 14 -20 9 0 12 7 9 20 -3 11 -9 20 -14 20 -5 0
-9 -9 -9 -20z"/>
<path d="M730 10 c0 -5 7 -10 15 -10 8 0 15 5 15 10 0 6 -7 10 -15 10 -8 0
-15 -4 -15 -10z"/>
<path d="M618 3 c6 -2 18 -2 25 0 6 3 1 5 -13 5 -14 0 -19 -2 -12 -5z"/>
</g>
</svg>
